# Blender 3.1.0
# www.blender.org
mtllib Sword.mtl
o Cube
v -0.743978 1.061089 -0.300725
v 0.334689 5.572094 -0.119906
v 0.334689 5.572094 0.119906
v -0.334689 5.572094 -0.119906
v -0.334689 5.572094 0.119906
v -0.316841 0.067826 -0.316841
v -0.316841 0.067826 0.316841
v 0.316841 0.067826 -0.316841
v 0.316841 0.067826 0.316841
v 0.151858 1.322680 0.109621
v 0.151858 1.322680 -0.109621
v -0.151858 1.322680 -0.109621
v -0.151858 1.322680 0.109621
v 0.579561 1.123364 -0.192677
v -0.579561 1.123364 0.192677
v 0.579561 1.123364 0.192677
v -0.579561 1.123364 -0.192677
v 0.743978 1.061089 0.300725
v 0.151858 1.150956 0.109621
v 0.000000 0.067826 -0.316841
v 0.000000 0.067826 0.316841
v 0.000000 1.322680 -0.109621
v 0.000000 1.322680 0.109621
v 0.000000 1.182908 0.226098
v 0.000000 1.182908 -0.226098
v 0.000000 6.397248 0.000000
v 0.320107 0.426516 0.320107
v -0.320107 0.426516 -0.320107
v 0.320107 0.426516 -0.320107
v -0.320107 0.426516 0.320107
v 0.000000 0.426516 -0.320107
v 0.000000 0.426516 0.320107
v 0.151858 0.474273 -0.151858
v -0.151858 0.474273 0.151858
v 0.151858 0.474273 0.151858
v -0.151858 0.474273 -0.151858
v 0.000000 0.474273 -0.151858
v 0.000000 0.474273 0.151858
v -0.164535 0.003474 -0.164535
v -0.164535 0.003474 0.164535
v 0.000000 0.003474 -0.164535
v 0.000000 0.003474 0.164535
v 0.164535 0.003474 0.164535
v 0.164535 0.003474 -0.164535
v -0.151858 1.150956 -0.109621
v 0.000000 1.150956 -0.109621
v 0.000000 1.150956 0.109621
v -0.151858 1.150956 0.109621
v 0.151858 1.150956 -0.109621
v 0.743978 1.061089 -0.300725
v -0.743978 1.061089 0.300725
v 0.000000 1.151361 0.342783
v 0.000000 1.151361 -0.342783
v -0.151858 1.006287 -0.109621
v -0.151858 1.006287 0.109621
v -0.810401 0.916420 0.327574
v 0.000000 1.006691 0.342783
v -0.810401 0.916420 -0.327574
v 0.000000 1.006287 0.109621
v 0.151858 1.006287 -0.109621
v 0.000000 1.006287 -0.109621
v 0.000000 1.006691 -0.342783
v 0.151858 1.006287 0.109621
v 0.810401 0.916420 0.327574
v 0.810401 0.916420 -0.327574
vn -0.0000 -0.0000 1.0000
vn -0.9267 0.3759 -0.0000
vn 1.0000 -0.0091 -0.0000
vn 0.9267 0.3759 -0.0000
vn 0.0486 0.1033 -0.9935
vn -0.0000 -0.9212 0.3892
vn -1.0000 -0.0091 -0.0000
vn -0.0000 -0.0091 1.0000
vn -0.0000 -0.0091 -1.0000
vn 0.1242 0.9447 -0.3035
vn -1.0000 -0.0000 -0.0000
vn 0.3542 0.9352 -0.0000
vn -0.1242 0.9447 0.3035
vn -0.0486 0.1033 0.9935
vn -0.0000 0.1438 -0.9896
vn -0.0000 0.0213 -0.9998
vn 0.9088 0.4173 -0.0000
vn -0.1242 0.9447 -0.3035
vn 1.0000 -0.0000 -0.0000
vn -0.0000 -0.9212 -0.3892
vn -0.0000 0.9620 0.2731
vn -0.0000 0.9620 -0.2731
vn -0.2731 0.9620 -0.0000
vn 0.2731 0.9620 -0.0000
vn -0.0000 0.0497 0.9988
vn -0.0000 0.0497 -0.9988
vn -0.0000 -1.0000 -0.0000
vn -0.3892 -0.9212 -0.0000
vn 0.3892 -0.9212 -0.0000
vn -0.0000 -0.0000 -1.0000
vn -0.0000 0.1438 0.9896
vn -0.0000 0.0213 0.9998
vn -0.9985 0.0550 -0.0000
vn 0.9985 0.0550 -0.0000
vn -0.3542 0.9352 -0.0000
vn 0.1242 0.9447 0.3035
vn 0.0942 -0.9938 0.0596
vn -0.0942 -0.9938 0.0596
vn 0.1352 -0.9908 -0.0000
vn 0.0942 -0.9938 -0.0596
vn -0.0942 -0.9938 -0.0596
vn -0.1352 -0.9908 -0.0000
vn -0.9088 0.4173 -0.0000
vn -0.0486 0.1033 -0.9935
vn 0.0486 0.1033 0.9935
vt 0.375000 0.250000
vt 0.375000 0.500000
vt 0.375000 0.750000
vt 0.375000 0.250000
vt 0.375000 0.000000
vt 0.375000 0.250000
vt 0.375000 0.000000
vt 0.375000 1.000000
vt 0.375000 0.500000
vt 0.375000 0.750000
vt 0.375000 0.750000
vt 0.375000 0.500000
vt 0.375000 0.250000
vt 0.375000 0.000000
vt 0.375000 1.000000
vt 0.375000 0.500000
vt 0.375000 1.000000
vt 0.375000 0.000000
vt 0.375000 0.750000
vt 0.375000 0.250000
vt 0.375000 0.750000
vt 0.375000 0.750000
vt 0.375000 0.375000
vt 0.375000 0.875000
vt 0.375000 0.375000
vt 0.375000 0.875000
vt 0.375000 0.875000
vt 0.375000 0.375000
vt 0.625000 0.250000
vt 0.625000 0.750000
vt 0.375000 0.750000
vt 0.375000 0.250000
vt 0.375000 0.500000
vt 0.375000 1.000000
vt 0.375000 0.000000
vt 0.375000 0.375000
vt 0.375000 0.875000
vt 0.375000 0.500000
vt 0.375000 0.000000
vt 0.375000 1.000000
vt 0.375000 0.750000
vt 0.375000 0.250000
vt 0.375000 0.375000
vt 0.375000 0.875000
vt 0.125000 0.500000
vt 0.375000 0.250000
vt 0.125000 0.750000
vt 0.375000 0.000000
vt 0.375000 1.000000
vt 0.250000 0.500000
vt 0.375000 0.375000
vt 0.250000 0.750000
vt 0.375000 0.875000
vt 0.375000 0.750000
vt 0.375000 0.500000
vt 0.375000 0.250000
vt 0.375000 0.375000
vt 0.375000 0.875000
vt 0.375000 0.000000
vt 0.375000 1.000000
vt 0.375000 0.500000
vt 0.375000 0.500000
vt 0.375000 1.000000
vt 0.375000 0.000000
vt 0.375000 0.875000
vt 0.375000 0.375000
vt 0.375000 0.250000
vt 0.375000 0.000000
vt 0.375000 1.000000
vt 0.375000 1.000000
vt 0.375000 0.000000
vt 0.375000 0.875000
vt 0.375000 0.250000
vt 0.375000 0.875000
vt 0.375000 0.500000
vt 0.375000 0.375000
vt 0.375000 0.375000
vt 0.375000 0.750000
vt 0.375000 0.750000
vt 0.375000 0.500000
s 0
usemtl Material
f 49/61/1 46/57/1 61/76/1 60/75/1
f 5/5/2 26/29/2 4/4/2
f 29/33/3 27/31/3 9/10/3 8/9/3
f 2/2/4 26/30/4 3/3/4
f 53/66/5 50/62/5 65/80/5 62/77/5
f 9/10/6 21/24/6 42/53/6 43/54/6
f 30/35/7 28/32/7 6/6/7 7/7/7
f 32/37/8 30/34/8 7/8/8 21/24/8
f 31/36/9 29/33/9 8/9/9 20/23/9
f 25/28/10 14/16/10 50/62/10 53/66/10
f 10/11/11 11/12/11 49/61/11 19/22/11
f 14/16/12 16/19/12 18/21/12 50/62/12
f 24/27/13 15/17/13 51/63/13 52/65/13
f 52/65/14 51/63/14 56/70/14 57/72/14
f 2/2/15 4/4/15 26/30/15
f 17/20/16 4/4/16 2/2/16 14/16/16 25/28/16
f 50/62/17 18/21/17 64/79/17 65/80/17
f 17/20/18 25/28/18 53/66/18 1/1/18
f 12/13/19 13/14/19 48/59/19 45/56/19
f 28/32/9 31/36/9 20/23/9 6/6/9
f 27/31/8 32/37/8 21/24/8 9/10/8
f 20/23/20 8/9/20 44/55/20 41/51/20
f 35/41/21 38/44/21 32/37/21 27/31/21
f 36/42/22 37/43/22 31/36/22 28/32/22
f 37/43/22 33/38/22 29/33/22 31/36/22
f 38/44/21 34/40/21 30/34/21 32/37/21
f 34/39/23 36/42/23 28/32/23 30/35/23
f 33/38/24 35/41/24 27/31/24 29/33/24
f 11/12/19 10/11/19 35/41/19 33/38/19
f 13/14/11 12/13/11 36/42/11 34/39/11
f 23/26/25 13/15/25 34/40/25 38/44/25
f 22/25/26 11/12/26 33/38/26 37/43/26
f 12/13/26 22/25/26 37/43/26 36/42/26
f 10/11/25 23/26/25 38/44/25 35/41/25
f 41/50/27 44/55/27 43/54/27 42/52/27
f 39/45/27 41/50/27 42/52/27 40/47/27
f 7/7/28 6/6/28 39/46/28 40/48/28
f 21/24/6 7/8/6 40/49/6 42/53/6
f 8/9/29 9/10/29 43/54/29 44/55/29
f 6/6/20 20/23/20 41/51/20 39/46/20
f 48/60/30 47/58/30 59/74/30 55/69/30
f 3/3/31 26/30/31 5/5/31
f 24/27/32 16/19/32 3/3/32 5/5/32 15/17/32
f 45/56/19 48/59/19 55/68/19 54/67/19
f 5/5/33 4/4/33 17/20/33 15/18/33
f 2/2/34 3/3/34 16/19/34 14/16/34
f 22/25/1 12/13/1 45/56/1 46/57/1
f 15/18/35 17/20/35 1/1/35 51/64/35
f 11/12/1 22/25/1 46/57/1 49/61/1
f 23/26/30 10/11/30 19/22/30 47/58/30
f 16/19/36 24/27/36 52/65/36 18/21/36
f 13/15/30 23/26/30 47/58/30 48/60/30
f 58/73/37 62/77/37 61/76/37 54/67/37
f 62/77/38 65/80/38 60/75/38 61/76/38
f 56/71/39 58/73/39 54/67/39 55/68/39
f 57/72/40 56/70/40 55/69/40 59/74/40
f 64/79/41 57/72/41 59/74/41 63/78/41
f 65/80/42 64/79/42 63/78/42 60/75/42
f 51/64/43 1/1/43 58/73/43 56/71/43
f 1/1/44 53/66/44 62/77/44 58/73/44
f 18/21/45 52/65/45 57/72/45 64/79/45
f 46/57/1 45/56/1 54/67/1 61/76/1
f 19/22/11 49/61/11 60/75/11 63/78/11
f 47/58/30 19/22/30 63/78/30 59/74/30
