# Blender 3.1.0
# www.blender.org
mtllib Sword.mtl
o Cube
v -0.743978 1.061089 -0.300725
v 0.141965 5.844502 -0.119906
v 0.141965 5.844502 0.119906
v -0.141965 5.844502 -0.119906
v -0.141965 5.844502 0.119906
v -0.316841 0.067826 -0.316841
v -0.316841 0.067826 0.316841
v 0.316841 0.067826 -0.316841
v 0.316841 0.067826 0.316841
v 0.151858 1.322680 0.109621
v 0.151858 1.322680 -0.109621
v -0.151858 1.322680 -0.109621
v -0.151858 1.322680 0.109621
v 0.291159 1.123364 -0.192677
v -0.291159 1.123364 0.192677
v 0.291159 1.123364 0.192677
v -0.291159 1.123364 -0.192677
v 0.743978 1.061089 0.300725
v 0.151858 1.150956 0.109621
v 0.000000 0.067826 -0.316841
v 0.000000 0.067826 0.316841
v 0.000000 1.322680 -0.109621
v 0.000000 1.322680 0.109621
v 0.000000 1.182908 0.226098
v 0.000000 1.182908 -0.226098
v 0.000000 6.397248 0.000000
v 0.320107 0.426516 0.320107
v -0.320107 0.426516 -0.320107
v 0.320107 0.426516 -0.320107
v -0.320107 0.426516 0.320107
v 0.000000 0.426516 -0.320107
v 0.000000 0.426516 0.320107
v 0.151858 0.474273 -0.151858
v -0.151858 0.474273 0.151858
v 0.151858 0.474273 0.151858
v -0.151858 0.474273 -0.151858
v 0.000000 0.474273 -0.151858
v 0.000000 0.474273 0.151858
v -0.164535 0.003474 -0.164535
v -0.164535 0.003474 0.164535
v 0.000000 0.003474 -0.164535
v 0.000000 0.003474 0.164535
v 0.164535 0.003474 0.164535
v 0.164535 0.003474 -0.164535
v -0.151858 1.150956 -0.109621
v 0.000000 1.150956 -0.109621
v 0.000000 1.150956 0.109621
v -0.151858 1.150956 0.109621
v 0.151858 1.150956 -0.109621
v 0.743978 1.061089 -0.300725
v -0.743978 1.061089 0.300725
v 0.000000 1.151361 0.342783
v 0.000000 1.151361 -0.342783
v -0.151858 1.006287 -0.109621
v -0.151858 1.006287 0.109621
v -0.810401 0.916420 0.327574
v 0.000000 1.006691 0.342783
v -0.810401 0.916420 -0.327574
v 0.000000 1.006287 0.109621
v 0.151858 1.006287 -0.109621
v 0.000000 1.006287 -0.109621
v 0.000000 1.006691 -0.342783
v 0.151858 1.006287 0.109621
v 0.810401 0.916420 0.327574
v 0.810401 0.916420 -0.327574
v -0.334689 5.844502 0.000000
v -0.151858 1.150956 0.000000
v -0.743978 1.061089 0.000000
v 0.334689 5.844502 0.000000
v -0.316841 0.067826 0.000000
v 0.316841 0.067826 0.000000
v -0.151858 1.322680 0.000000
v 0.151858 1.322680 0.000000
v 0.579561 1.123364 0.000000
v -0.579561 1.123364 0.000000
v 0.743978 1.061089 0.000000
v -0.320107 0.426516 0.000000
v 0.320107 0.426516 0.000000
v 0.151858 0.474273 0.000000
v -0.151858 0.474273 0.000000
v -0.164535 0.003474 0.000000
v 0.164535 0.003474 0.000000
v 0.000000 0.003474 0.000000
v 0.151858 1.150956 0.000000
v -0.151858 1.006287 0.000000
v -0.810401 0.916420 0.000000
v 0.810401 0.916420 0.000000
v 0.151858 1.006287 0.000000
vn -0.0000 -0.0000 1.0000
vn 0.5032 0.3047 -0.8087
vn 1.0000 -0.0091 -0.0000
vn 0.5032 0.3047 0.8087
vn 0.0486 0.1033 -0.9935
vn -0.0000 -0.9212 0.3892
vn -1.0000 -0.0091 -0.0000
vn -0.0000 -0.0091 1.0000
vn -0.0000 -0.0091 -1.0000
vn 0.1501 0.9828 -0.1079
vn -1.0000 -0.0000 -0.0000
vn 0.1791 0.9783 0.1047
vn -0.1501 0.9828 0.1079
vn -0.0486 0.1033 0.9935
vn -0.0000 0.2120 -0.9773
vn -0.0000 0.0203 -0.9998
vn 0.9088 0.4173 -0.0000
vn -0.1501 0.9828 -0.1079
vn 1.0000 -0.0000 -0.0000
vn -0.0000 -0.9212 -0.3892
vn -0.0000 0.9620 0.2731
vn -0.0000 0.9620 -0.2731
vn -0.2731 0.9620 -0.0000
vn 0.2731 0.9620 -0.0000
vn -0.0000 0.0497 0.9988
vn -0.0000 0.0497 -0.9988
vn -0.0000 -1.0000 -0.0000
vn -0.3892 -0.9212 -0.0000
vn 0.3892 -0.9212 -0.0000
vn -0.0000 -0.0000 -1.0000
vn -0.0000 0.2120 0.9773
vn -0.0000 0.0203 0.9998
vn -0.5446 0.0292 -0.8382
vn 0.5446 0.0292 0.8382
vn -0.1791 0.9783 -0.1047
vn 0.1501 0.9828 0.1079
vn 0.0942 -0.9938 0.0596
vn -0.0942 -0.9938 0.0596
vn 0.1352 -0.9908 -0.0000
vn 0.0942 -0.9938 -0.0596
vn -0.0942 -0.9938 -0.0596
vn -0.1352 -0.9908 -0.0000
vn -0.9088 0.4173 -0.0000
vn -0.0486 0.1033 -0.9935
vn 0.0486 0.1033 0.9935
vn -0.1791 0.9783 0.1047
vn 0.5446 0.0292 -0.8382
vn -0.5446 0.0292 0.8382
vn 0.1791 0.9783 -0.1047
vn -0.5032 0.3047 0.8087
vn -0.5032 0.3047 -0.8087
vt 0.375000 0.250000
vt 0.375000 0.500000
vt 0.375000 0.750000
vt 0.375000 0.250000
vt 0.375000 0.000000
vt 0.375000 0.250000
vt 0.375000 1.000000
vt 0.375000 0.000000
vt 0.375000 0.500000
vt 0.375000 0.750000
vt 0.375000 0.750000
vt 0.375000 0.500000
vt 0.375000 0.250000
vt 0.375000 1.000000
vt 0.375000 0.000000
vt 0.375000 0.500000
vt 0.375000 1.000000
vt 0.375000 0.000000
vt 0.375000 0.750000
vt 0.375000 0.250000
vt 0.375000 0.750000
vt 0.375000 0.750000
vt 0.375000 0.375000
vt 0.375000 0.875000
vt 0.375000 0.375000
vt 0.375000 0.875000
vt 0.375000 0.875000
vt 0.375000 0.375000
vt 0.625000 0.750000
vt 0.375000 0.750000
vt 0.375000 0.250000
vt 0.375000 0.500000
vt 0.375000 1.000000
vt 0.375000 0.000000
vt 0.375000 0.375000
vt 0.375000 0.875000
vt 0.375000 0.500000
vt 0.375000 1.000000
vt 0.375000 0.000000
vt 0.375000 0.750000
vt 0.375000 0.250000
vt 0.375000 0.375000
vt 0.375000 0.875000
vt 0.375000 0.250000
vt 0.125000 0.500000
vt 0.125000 0.750000
vt 0.375000 1.000000
vt 0.375000 0.000000
vt 0.375000 0.375000
vt 0.250000 0.500000
vt 0.250000 0.750000
vt 0.375000 0.875000
vt 0.375000 0.750000
vt 0.375000 0.500000
vt 0.375000 0.250000
vt 0.375000 0.375000
vt 0.375000 0.875000
vt 0.375000 0.000000
vt 0.375000 1.000000
vt 0.375000 0.500000
vt 0.375000 0.500000
vt 0.375000 1.000000
vt 0.375000 0.000000
vt 0.375000 0.875000
vt 0.375000 0.375000
vt 0.375000 0.250000
vt 0.375000 1.000000
vt 0.375000 0.000000
vt 0.375000 1.000000
vt 0.375000 0.000000
vt 0.375000 0.875000
vt 0.375000 0.250000
vt 0.375000 0.875000
vt 0.375000 0.500000
vt 0.375000 0.375000
vt 0.375000 0.375000
vt 0.375000 0.750000
vt 0.375000 0.750000
vt 0.375000 0.500000
vt 0.375000 0.125000
vt 0.375000 0.125000
vt 0.375000 0.125000
vt 0.375000 0.625000
vt 0.375000 0.125000
vt 0.375000 0.625000
vt 0.375000 0.125000
vt 0.375000 0.625000
vt 0.375000 0.625000
vt 0.375000 0.125000
vt 0.375000 0.625000
vt 0.375000 0.125000
vt 0.375000 0.625000
vt 0.375000 0.625000
vt 0.375000 0.125000
vt 0.375000 0.125000
vt 0.125000 0.625000
vt 0.375000 0.625000
vt 0.250000 0.625000
vt 0.375000 0.625000
vt 0.375000 0.125000
vt 0.375000 0.125000
vt 0.375000 0.625000
vt 0.375000 0.625000
s 0
usemtl Material
f 49/60/1 46/56/1 61/75/1 60/74/1
f 2/2/2 26/29/2 69/83/2
f 78/92/3 27/30/3 9/10/3 71/85/3
f 26/29/4 3/3/4 69/83/4
f 53/65/5 50/61/5 65/79/5 62/76/5
f 9/10/6 21/24/6 42/52/6 43/53/6
f 77/91/7 28/31/7 6/6/7 70/84/7
f 32/36/8 30/33/8 7/7/8 21/24/8
f 31/35/9 29/32/9 8/9/9 20/23/9
f 25/28/10 14/16/10 50/61/10 53/65/10
f 73/87/11 11/12/11 49/60/11 84/99/11
f 74/88/12 16/19/12 18/21/12 76/90/12
f 24/27/13 15/17/13 51/62/13 52/64/13
f 52/64/14 51/62/14 56/69/14 57/71/14
f 2/2/15 4/4/15 26/29/15
f 17/20/16 4/4/16 2/2/16 14/16/16 25/28/16
f 76/90/17 18/21/17 64/78/17 87/102/17
f 17/20/18 25/28/18 53/65/18 1/1/18
f 72/86/19 13/15/19 48/58/19 67/81/19
f 28/31/9 31/35/9 20/23/9 6/6/9
f 27/30/8 32/36/8 21/24/8 9/10/8
f 20/23/20 8/9/20 44/54/20 41/49/20
f 35/40/21 38/43/21 32/36/21 27/30/21
f 36/41/22 37/42/22 31/35/22 28/31/22
f 37/42/22 33/37/22 29/32/22 31/35/22
f 38/43/21 34/38/21 30/33/21 32/36/21
f 80/94/23 36/41/23 28/31/23 77/91/23
f 79/93/24 35/40/24 27/30/24 78/92/24
f 73/87/19 10/11/19 35/40/19 79/93/19
f 72/86/11 12/13/11 36/41/11 80/94/11
f 23/26/25 13/14/25 34/38/25 38/43/25
f 22/25/26 11/12/26 33/37/26 37/42/26
f 12/13/26 22/25/26 37/42/26 36/41/26
f 10/11/25 23/26/25 38/43/25 35/40/25
f 83/98/27 82/97/27 43/53/27 42/51/27
f 81/96/27 83/98/27 42/51/27 40/46/27
f 70/84/28 6/6/28 39/44/28 81/95/28
f 21/24/6 7/7/6 40/47/6 42/52/6
f 71/85/29 9/10/29 43/53/29 82/97/29
f 6/6/20 20/23/20 41/49/20 39/44/20
f 48/59/30 47/57/30 59/73/30 55/67/30
f 3/3/31 26/29/31 5/5/31
f 24/27/32 16/19/32 3/3/32 5/5/32 15/17/32
f 67/81/19 48/58/19 55/68/19 85/100/19
f 66/80/33 4/4/33 17/20/33 75/89/33
f 69/83/34 3/3/34 16/19/34 74/88/34
f 22/25/1 12/13/1 45/55/1 46/56/1
f 75/89/35 17/20/35 1/1/35 68/82/35
f 11/12/1 22/25/1 46/56/1 49/60/1
f 23/26/30 10/11/30 19/22/30 47/57/30
f 16/19/36 24/27/36 52/64/36 18/21/36
f 13/14/30 23/26/30 47/57/30 48/59/30
f 58/72/37 62/76/37 61/75/37 54/66/37
f 62/76/38 65/79/38 60/74/38 61/75/38
f 86/101/39 58/72/39 54/66/39 85/100/39
f 57/71/40 56/69/40 55/67/40 59/73/40
f 64/78/41 57/71/41 59/73/41 63/77/41
f 87/102/42 64/78/42 63/77/42 88/103/42
f 68/82/43 1/1/43 58/72/43 86/101/43
f 1/1/44 53/65/44 62/76/44 58/72/44
f 18/21/45 52/64/45 57/71/45 64/78/45
f 46/56/1 45/55/1 54/66/1 61/75/1
f 84/99/11 49/60/11 60/74/11 88/103/11
f 47/57/30 19/22/30 63/77/30 59/73/30
f 19/22/11 84/99/11 88/103/11 63/77/11
f 51/63/43 68/82/43 86/101/43 56/70/43
f 65/79/42 87/102/42 88/103/42 60/74/42
f 56/70/39 86/101/39 85/100/39 55/68/39
f 15/18/46 75/89/46 68/82/46 51/63/46
f 2/2/47 69/83/47 74/88/47 14/16/47
f 5/5/48 66/80/48 75/89/48 15/18/48
f 45/55/19 67/81/19 85/100/19 54/66/19
f 8/9/29 71/85/29 82/97/29 44/54/29
f 7/8/28 70/84/28 81/95/28 40/48/28
f 39/45/27 41/50/27 83/98/27 81/96/27
f 41/50/27 44/54/27 82/97/27 83/98/27
f 13/15/11 72/86/11 80/94/11 34/39/11
f 11/12/19 73/87/19 79/93/19 33/37/19
f 33/37/24 79/93/24 78/92/24 29/32/24
f 34/39/23 80/94/23 77/91/23 30/34/23
f 12/13/19 72/86/19 67/81/19 45/55/19
f 50/61/17 76/90/17 87/102/17 65/79/17
f 14/16/49 74/88/49 76/90/49 50/61/49
f 10/11/11 73/87/11 84/99/11 19/22/11
f 30/34/7 77/91/7 70/84/7 7/8/7
f 29/32/3 78/92/3 71/85/3 8/9/3
f 5/5/50 26/29/50 66/80/50
f 26/29/51 4/4/51 66/80/51
